Coordinates
version=1
nRows=5
nColumns=40
inDegrees=yes
endheader
time	pelvis_tilt	pelvis_list	pelvis_rotation	pelvis_tx	pelvis_ty	pelvis_tz	hip_flexion_r	hip_adduction_r	hip_rotation_r	knee_angle_r	knee_angle_r_beta	ankle_angle_r	subtalar_angle_r	mtp_angle_r	hip_flexion_l	hip_adduction_l	hip_rotation_l	knee_angle_l	knee_angle_l_beta	ankle_angle_l	subtalar_angle_l	mtp_angle_l	lumbar_extension	lumbar_bending	lumbar_rotation	arm_flex_r	arm_add_r	arm_rot_r	elbow_flex_r	pro_sup_r	wrist_flex_r	wrist_dev_r	arm_flex_l	arm_add_l	arm_rot_l	elbow_flex_l	pro_sup_l	wrist_flex_l	wrist_dev_l
1760625082.45918012	      2.83990927	     -1.81791988	      0.49287302	      0.16188500	      0.85970474	      0.00045757	     80.00000000	     -7.00000000	      0.00000000	     80.00000000	      1.39626340	      0.00000000	      0.00000000	      0.00000000	     80.00000000	     -7.00000000	      0.00000000	     80.00000000	      1.39626340	      0.00000000	      0.00000000	      0.00000000	     -9.69410564	     -0.73256656	      1.41057629	      3.62234659	     -5.40636525	     12.58451218	      0.00000000	      0.00000000	    -13.84900074	    -15.32214994	      4.41716608	     -6.16322542	     12.27145674	      0.00000000	      5.50332857	     -9.65703889	     -5.37855544
1760625082.46918011	      2.83929317	     -1.81704588	      0.49242563	      0.16191023	      0.85975169	      0.00049620	     80.00000000	     -7.00000000	      0.00000000	     80.00000000	      1.39626340	      0.00000000	      0.00000000	      0.00000000	     80.00000000	     -7.00000000	      0.00000000	     80.00000000	      1.39626340	      0.00000000	      0.00000000	      0.00000000	     -9.69458089	     -0.73125218	      1.40968362	      3.62144691	     -5.40765033	     12.58458854	      0.00000000	      0.00000000	    -13.84900989	    -15.32220778	      4.41698736	     -6.16417939	     12.27142338	      0.00000000	      5.50329268	     -9.65709516	     -5.37851408
1760625082.47918010	      2.83802402	     -1.81552106	      0.49050367	      0.16194553	      0.85978153	      0.00054619	     80.00000000	     -7.00000000	      0.00000000	     80.00000000	      1.39626340	      0.00000000	      0.00000000	      0.00000000	     80.00000000	     -7.00000000	      0.00000000	     80.00000000	      1.39626340	      0.00000000	      0.00000000	      0.00000000	     -9.69585590	     -0.72894795	      1.40731279	      3.61883935	     -5.41057496	     12.58465980	      0.00000000	      0.00000000	    -13.84905720	    -15.32229872	      4.41739458	     -6.16675067	     12.27146677	      0.00000000	      5.50329227	     -9.65716982	     -5.37849243
1760625082.48918009	      2.83625031	     -1.81215659	      0.48122057	      0.16199258	      0.85974890	      0.00053514	     80.00000000	     -7.00000000	      0.00000000	     80.00000000	      1.39626340	      0.00000000	      0.00000000	      0.00000000	     80.00000000	     -7.00000000	      0.00000000	     80.00000000	      1.39626340	      0.00000000	      0.00000000	      0.00000000	     -9.69957409	     -0.71944706	      1.39598319	      3.60725314	     -5.42832884	     12.58510506	      0.00000000	      0.00000000	    -13.84948317	    -15.32307641	      4.41745281	     -6.18491993	     12.27153564	      0.00000000	      5.50313118	     -9.65778386	     -5.37821953
1760625082.49918008	      2.83564915	     -1.81193854	      0.48075232	      0.16202128	      0.85979815	      0.00057600	     80.00000000	     -7.00000000	      0.00000000	     80.00000000	      1.39626340	      0.00000000	      0.00000000	      0.00000000	     80.00000000	     -7.00000000	      0.00000000	     80.00000000	      1.39626340	      0.00000000	      0.00000000	      0.00000000	     -9.69991475	     -0.71880050	      1.39495774	      3.60632502	     -5.43032242	     12.58525320	      0.00000000	      0.00000000	    -13.84952459	    -15.32317304	      4.41742948	     -6.18598246	     12.27150657	      0.00000000	      5.50308416	     -9.65785422	     -5.37816393
